<?xml version="1.0" encoding="UTF-8"?>
<svg xmlns="http://www.w3.org/2000/svg" xmlns:xlink="http://www.w3.org/1999/xlink" width="13px" height="13px" viewBox="0 0 13 13" version="1.1">
<g id="surface1">
<path style=" stroke:none;fill-rule:nonzero;fill:rgb(100%,38.039216%,13.333333%);fill-opacity:1;" d="M 11.917969 6.5 C 11.917969 9.492188 9.492188 11.917969 6.5 11.917969 C 3.507812 11.917969 1.082031 9.492188 1.082031 6.5 C 1.082031 3.507812 3.507812 1.082031 6.5 1.082031 C 9.492188 1.082031 11.917969 3.507812 11.917969 6.5 Z M 11.917969 6.5 "/>
<path style=" stroke:none;fill-rule:evenodd;fill:rgb(100%,100%,100%);fill-opacity:1;" d="M 7.609375 5.582031 C 7.902344 5.183594 8.40625 4.535156 8.949219 4.308594 C 9.394531 4.121094 9.859375 4.316406 9.726562 4.832031 C 9.675781 5.03125 9.417969 5.304688 9.238281 5.574219 C 8.929688 6.039062 8.613281 6.625 8.355469 7.15625 C 8.175781 7.527344 8.042969 7.839844 7.785156 8.074219 C 7.148438 8.65625 6.1875 8.140625 6.261719 6.742188 C 5.90625 7.1875 5.695312 8.167969 5.238281 8.621094 C 5.066406 8.792969 4.679688 8.980469 4.308594 8.878906 C 3.3125 8.609375 3.136719 6.828125 3.308594 5.503906 C 3.378906 4.953125 3.5625 4.433594 3.933594 4.296875 C 4.207031 4.195312 4.589844 4.265625 4.75 4.410156 C 5.074219 4.707031 4.988281 5.351562 4.980469 5.84375 C 5.152344 5.613281 5.386719 5.171875 5.679688 4.832031 C 5.945312 4.523438 6.285156 4.15625 6.632812 4.085938 C 7.484375 3.914062 7.734375 4.71875 7.609375 5.582031 Z M 7.609375 5.582031 "/>
</g>
</svg>
